# xmcd
#
# Track frame offsets:
#	150
#	35144
#	65137
#	103695
#	126960
#	159505
#	182903
#	219927
#	233813
#	263214
#
# Disc length: 3924 seconds
#
# Revision: 1
# Processed by: cddbd v1.5.2PL0 Copyright (c) Steve Scherf et al.
# Submitted via: audiograbber 1.83.01
#
DISCID=930f520a
DTITLE=Grateful Dead - 78-04-19 Veterans Memorial Hall, Columbus OH
DYEAR=1900
DGENRE=
TTITLE0=Bertha
TTITLE1=Good Lovin'
TTITLE2=Friend Of The Devil
TTITLE3=Passenger
TTITLE4=Candyman
TTITLE5=Cassidy
TTITLE6=Peggy-O
TTITLE7=Me and My Uncle
TTITLE8=Big River
TTITLE9=Deal
EXTD=
EXTT0=
EXTT1=
EXTT2=
EXTT3=
EXTT4=
EXTT5=
EXTT6=
EXTT7=
EXTT8=
EXTT9=
PLAYORDER=
